<?xml version="1.0" encoding="UTF-8"?>
<svg width="210mm" height="297mm" version="1.1" viewBox="0 0 210 297" xmlns="http://www.w3.org/2000/svg" xmlns:cc="http://creativecommons.org/ns#" xmlns:dc="http://purl.org/dc/elements/1.1/" xmlns:rdf="http://www.w3.org/1999/02/22-rdf-syntax-ns#">
 <metadata>
  <rdf:RDF>
   <cc:Work rdf:about="">
    <dc:format>image/svg+xml</dc:format>
    <dc:type rdf:resource="http://purl.org/dc/dcmitype/StillImage"/>
    <dc:title/>
   </cc:Work>
  </rdf:RDF>
 </metadata>
 <g>
  <path transform="rotate(45)" d="m130.84-28.372s86.983 7.0806 106.7 39.476c10.561 17.355 6.5776 45.823-7.4836 60.486-15.503 16.167-47.292 22.912-66.286 11.038-32.725-20.458-32.928-111-32.928-111z" fill="#0052ff" stroke-width=".26458"/>
  <path d="m112.24 75.665s51.357 60.459 43.206 93.951c-4.3668 17.943-25.224 33.68-43.687 34.067-20.356 0.42665-45.123-15.67-49.699-35.51-7.8846-34.183 50.18-92.508 50.18-92.508z" fill="#00a9ff" stroke-width=".2405"/>
  <path d="m112.18 77.782s37.135 43.716 31.241 67.933c-3.1575 12.974-18.239 24.353-31.589 24.633-14.719 0.30849-32.627-11.331-35.936-25.676-5.7011-24.717 36.284-66.89 36.284-66.89z" fill="#00d4ff" stroke-width=".1739"/>
  <path d="m111.49 81.221s26.733 31.471 22.49 48.905c-2.2731 9.3399-13.13 17.532-22.741 17.733-10.596 0.22208-23.488-8.157-25.871-18.484-4.1043-17.794 26.121-48.154 26.121-48.154z" fill="#63e6ff" stroke-width=".12519"/>
  <g fill="#fff">
   <path transform="scale(.26458)" d="m239.64 596.82c-0.85586 11.964-0.19049 23.461 2.3066 34.287 16.572 71.845 106.26 130.14 179.97 128.59 66.858-1.4013 142.39-58.391 158.2-123.37 2.875-11.813 3.6982-24.556 2.8555-37.93-0.44746 6.5275-1.3765 12.853-2.8555 18.93-15.813 64.976-91.345 121.97-158.2 123.37-73.715 1.545-163.4-56.747-179.97-128.59-1.1443-4.9612-1.9006-10.064-2.3066-15.287z" stroke-width=".87092"/>
   <path transform="scale(.26458)" d="m536.24 503.75c-0.31611 1.6229-0.65773 3.2352-1.0449 4.8262-14.436 59.317-77.152 112.17-139.18 124.49 8.8858 1.9212 17.742 2.8668 26.299 2.6875 48.123-1.0087 102.49-42.028 113.87-88.797 3.1827-13.078 2.864-27.739 0.05664-43.205z" stroke-width=".62687"/>
   <ellipse transform="rotate(-6.9709)" cx="109.69" cy="147.78" rx="3.4396" ry="6.6146" opacity=".998" stroke-width=".26458"/>
   <ellipse transform="rotate(-6.9709)" cx="108.11" cy="134.02" rx="3.175" ry="3.7042" opacity=".998" stroke-width=".19023"/>
   <ellipse transform="rotate(-6.9709)" cx="104.93" cy="123.7" rx="2.1167" ry="3.175" opacity=".998" stroke-width=".1438"/>
  </g>
 </g>
</svg>
