<?xml version="1.0" encoding="UTF-8"?>
<svg enable-background="new 0 0 1920 1920" inkscape:version="1.0 (4035a4fb49, 2020-05-01)" sodipodi:docname="CopleteLogo.svg" version="1.1" viewBox="0 0 1920 1920" xml:space="preserve" xmlns="http://www.w3.org/2000/svg" xmlns:cc="http://creativecommons.org/ns#" xmlns:dc="http://purl.org/dc/elements/1.1/" xmlns:inkscape="http://www.inkscape.org/namespaces/inkscape" xmlns:rdf="http://www.w3.org/1999/02/22-rdf-syntax-ns#" xmlns:sodipodi="http://sodipodi.sourceforge.net/DTD/sodipodi-0.dtd"><metadata><rdf:RDF><cc:Work rdf:about=""><dc:format>image/svg+xml</dc:format><dc:type rdf:resource="http://purl.org/dc/dcmitype/StillImage"/><dc:title/></cc:Work></rdf:RDF></metadata><sodipodi:namedview bordercolor="#666666" borderopacity="1" gridtolerance="10" guidetolerance="10" inkscape:current-layer="svg22" inkscape:cx="1534.2584" inkscape:cy="923.73454" inkscape:object-nodes="false" inkscape:pageopacity="0" inkscape:pageshadow="2" inkscape:showpageshadow="false" inkscape:snap-global="true" inkscape:snap-nodes="true" inkscape:snap-others="true" inkscape:window-height="1017" inkscape:window-maximized="1" inkscape:window-width="2560" inkscape:window-x="-8" inkscape:window-y="-8" inkscape:zoom="0.54711509" objecttolerance="10" pagecolor="#ffffff" showborder="false" showgrid="false"/>










<g transform="matrix(7.4132 0 0 7.4132 729.87 -33.015)"><path transform="rotate(45)" d="m130.84-28.372s86.983 7.0806 106.7 39.476c10.561 17.355 6.5776 45.823-7.4836 60.486-15.503 16.167-47.292 22.912-66.286 11.038-32.725-20.458-32.928-111-32.928-111z" fill="#0052ff" stroke-width=".26458"/><path d="m112.24 75.665s51.357 60.459 43.206 93.951c-4.3668 17.943-25.224 33.68-43.687 34.067-20.356 0.42665-45.123-15.67-49.699-35.51-7.8846-34.183 50.18-92.508 50.18-92.508z" fill="#00a9ff" stroke-width=".2405"/><path d="m112.18 77.782s37.135 43.716 31.241 67.933c-3.1575 12.974-18.239 24.353-31.589 24.633-14.719 0.30849-32.627-11.331-35.936-25.676-5.7011-24.717 36.284-66.89 36.284-66.89z" fill="#00d4ff" stroke-width=".1739"/><path d="m111.49 81.221s26.733 31.471 22.49 48.905c-2.2731 9.3399-13.13 17.532-22.741 17.733-10.596 0.22208-23.488-8.157-25.871-18.484-4.1043-17.794 26.121-48.154 26.121-48.154z" fill="#63e6ff" stroke-width=".12519"/><g fill="#fff"><path transform="scale(.26458)" d="m239.64 596.82c-0.85586 11.964-0.19049 23.461 2.3066 34.287 16.572 71.845 106.26 130.14 179.97 128.59 66.858-1.4013 142.39-58.391 158.2-123.37 2.875-11.813 3.6982-24.556 2.8555-37.93-0.44746 6.5275-1.3765 12.853-2.8555 18.93-15.813 64.976-91.345 121.97-158.2 123.37-73.715 1.545-163.4-56.747-179.97-128.59-1.1443-4.9612-1.9006-10.064-2.3066-15.287z" stroke-width=".87092"/><path transform="scale(.26458)" d="m536.24 503.75c-0.31611 1.6229-0.65773 3.2352-1.0449 4.8262-14.436 59.317-77.152 112.17-139.18 124.49 8.8858 1.9212 17.742 2.8668 26.299 2.6875 48.123-1.0087 102.49-42.028 113.87-88.797 3.1827-13.078 2.864-27.739 0.0566-43.205z" stroke-width=".62687"/><path transform="rotate(-6.9709)" d="m113.13 147.78a3.4396 6.6146 0 0 1-3.4396 6.6146 3.4396 6.6146 0 0 1-3.4396-6.6146 3.4396 6.6146 0 0 1 3.4396-6.6146 3.4396 6.6146 0 0 1 3.4396 6.6146" opacity=".998" stroke-width=".26458"/><path transform="rotate(-6.9709)" d="m111.28 134.02a3.175 3.7042 0 0 1-3.175 3.7042 3.175 3.7042 0 0 1-3.175-3.7042 3.175 3.7042 0 0 1 3.175-3.7042 3.175 3.7042 0 0 1 3.175 3.7042" opacity=".998" stroke-width=".19023"/><path transform="rotate(-6.9709)" d="m107.05 123.7a2.1167 3.175 0 0 1-2.1167 3.175 2.1167 3.175 0 0 1-2.1167-3.175 2.1167 3.175 0 0 1 2.1167-3.175 2.1167 3.175 0 0 1 2.1167 3.175" opacity=".998" stroke-width=".1438"/></g></g><path d="m1639.5 1010.3c-5.4844 0.359-8.7785 6.7298-13.109 9.586-0.022 31.559 0.066 63.119-0.066 94.699-1.3762-0.082-4.1492-0.2457-5.5254-0.3067-17.534-15.831-35.112-31.621-52.846-47.248-1.6645 1.6728-3.3527 3.387-5.084 5.1211 11.497 22.44 23.903 45.39 26.566 70.422-14.183 13.628-27.832 27.868-39.24 43.617-6.3702 9.1189-12.519 18.951-13.762 29.947 0.3773 7.2216 3.4848 14.097 5.1934 21.115-19.576 17.524-39.153 35.048-58.818 52.49-9.9657 8.1399-18.021 17.994-25.656 27.99-0.021 1.122-0.1113 3.3447-0.1563 4.4668 12.784 15.484 27.545 29.906 44.99 41.004 10.521 6.2834 22.773 11.976 35.646 10.854 18.666-4.2229 37.241-8.8745 55.863-13.24 10.876-2.3664 21.576-6.2832 32.94-5.3652 10.188 41.923 20.996 83.744 31.051 125.69-3.7538 23.9-8.541 23.195-4.2713 50.727 17.678-6.1639 32.302-11.73 49.038-19.839 30.009-14.54 61.675-34.081 87.882-55.693 9.8992-8.1638 19.798-16.547 30.264-26.677 14.214-13.758 27.638-29.186 39.402-44.274 15.655-20.078 27.723-41.13 38.012-61.822-1.1015-98.489-60.269-88.015-110.22-167.73-1.5317-2.6521-3.8391-4.7752-6.5469-6.4277-25.103-16.361-50.139-32.784-75.197-49.186-9.4773-35.272-30.518-69.157-63.856-89.68-0.8823-0.2222-1.7106-0.2932-2.4942-0.2422z" fill="#f2f2f2" stroke-width="2.1279" sodipodi:nodetypes="sccccccccccccccccccsssscccccss"/></svg>
